<svg width="259" height="40" viewBox="0 0 259 40" fill="none" xmlns="http://www.w3.org/2000/svg">
<mask id="mask0_7161_1251" style="mask-type:luminance" maskUnits="userSpaceOnUse" x="0" y="0" width="259" height="40">
<path d="M258.05 0H0V40H258.05V0Z" fill="#999"/>
</mask>
<g mask="url(#mask0_7161_1251)">
<path d="M15.7088 40.0005C15.2479 40.0005 14.7723 39.9419 14.304 39.8176C11.9188 39.181 10.3165 37.0958 10.3165 34.6227V28.0012C10.3165 26.7354 9.29212 25.7038 8.02635 25.7038H5.37041C3.43882 25.7038 1.7121 24.7014 0.738987 23.0332C-0.234125 21.3577 -0.241442 19.353 0.709719 17.6701L9.16774 2.73689C10.3896 0.585805 12.8114 -0.438522 15.1966 0.198024C17.5819 0.834571 19.1842 2.91981 19.1842 5.39283V12.0144C19.1842 13.2802 20.2085 14.3118 21.4743 14.3118H24.1302C26.0618 14.3118 27.7886 15.3142 28.7617 16.9824C29.7348 18.6579 29.7421 20.6626 28.7909 22.3455L20.3329 37.2787C19.3525 39.0054 17.6038 40.0078 15.7161 40.0078M13.7845 3.08078C13.0895 3.08078 12.3285 3.38807 11.8383 4.25144L3.38029 19.1847C2.97056 19.9017 2.97787 20.7577 3.39492 21.4748C3.81197 22.1918 4.55095 22.6162 5.37773 22.6162H8.03366C10.9896 22.6162 13.3894 25.0307 13.3894 27.9939V34.6154C13.3894 35.9178 14.2674 36.6202 15.0942 36.8397C15.921 37.0592 17.0258 36.8909 17.6697 35.7568L26.1277 20.8236C26.5374 20.1066 26.5301 19.2505 26.113 18.5335C25.696 17.8165 24.957 17.3921 24.1302 17.3921H21.4743C18.5184 17.3921 16.1185 14.9776 16.1185 12.0144V5.39283C16.1185 4.09047 15.2405 3.38807 14.4138 3.16857C14.2162 3.11736 14.004 3.08809 13.7845 3.08809" fill="#0741FF"/>
<path d="M136.696 20.4792C137.303 19.5281 137.662 18.4086 137.669 17.2014C137.706 13.7479 134.838 10.931 131.399 10.931H123.395V29.0763H126.248V13.7991H131.421C133.243 13.7991 134.772 15.2332 134.808 17.0624C134.852 18.9427 133.345 20.4865 131.479 20.4865H130.528C129.475 20.4865 128.853 21.6792 129.46 22.5425L134.018 29.0763H137.501L133.309 23.0693C134.713 22.6303 135.906 21.7011 136.682 20.4865" fill="#666"/>
<path d="M106.281 29.0689H119.598V26.2081H109.135V21.4304H117.695V18.5696H109.135V13.7918H119.598V10.931H106.281V29.0689Z" fill="#666"/>
<path d="M144.269 13.7918H151.878H154.732V10.931H141.415V29.0689H144.269V21.4304H152.829V18.5696H144.269V13.7918Z" fill="#666"/>
<path d="M190.407 13.7918H196.597V29.0689H199.451V13.7918H205.633V10.931H190.407V13.7918Z" fill="#666"/>
<path d="M162.824 10.931C161.894 10.931 161.06 11.5017 160.716 12.3651L154.058 29.0763H157.131L159.004 24.3717H166.643L168.516 29.0763H171.589L164.931 12.3651C164.587 11.5017 163.753 10.931 162.824 10.931ZM160.16 21.4523L162.816 14.7869L165.472 21.4523H160.16Z" fill="#666"/>
<path d="M96.3596 24.0863L92.9355 12.6358C92.6355 11.6261 91.7063 10.931 90.6527 10.931C89.5991 10.931 88.6699 11.6261 88.3699 12.6358L84.9457 24.0863L81.0094 10.931H78.0315L83.0287 27.6422C83.2848 28.4909 84.0604 29.0763 84.9457 29.0763C85.831 29.0763 86.6066 28.4909 86.8627 27.6422L90.6527 14.9625L94.4427 27.6422C94.6988 28.4909 95.4743 29.0763 96.3596 29.0763C97.245 29.0763 98.0205 28.4909 98.2766 27.6422L103.274 10.931H100.296L96.3596 24.0863Z" fill="#666"/>
<path d="M240.805 20.4792C241.412 19.5281 241.77 18.4086 241.778 17.2014C241.814 13.7479 238.946 10.931 235.507 10.931H227.503V29.0763H230.356V13.7991H235.529C237.351 13.7991 238.88 15.2332 238.917 17.0624C238.961 18.9427 237.454 20.4865 235.588 20.4865H234.637C233.583 20.4865 232.961 21.6792 233.568 22.5425L238.127 29.0763H241.609L237.417 23.0693C238.822 22.6303 240.014 21.7011 240.79 20.4865" fill="#666"/>
<path d="M255.657 19.7548C254.465 19.1037 253.009 18.8403 251.604 18.5769C248.487 18.0062 247.514 17.5964 247.514 16.1477C247.514 15.182 247.953 14.4357 248.772 13.9893C250.089 13.2796 252.628 13.2869 255.818 15.4234L257.413 13.0235C253.806 10.6091 250.075 10.0237 247.419 11.4505C245.655 12.4016 244.638 14.1137 244.638 16.1477C244.638 17.9696 245.465 19.3817 247.031 20.2377C248.224 20.8889 249.679 21.1523 251.084 21.4157C254.201 21.9864 255.174 22.3961 255.174 23.8448C255.174 24.9277 254.443 25.5496 253.828 25.8789C252.299 26.6983 249.314 26.8447 245.911 24.5692L244.316 26.969C246.189 28.2202 248.216 29.0031 250.177 29.2372C250.594 29.2884 250.996 29.3104 251.399 29.3104C252.804 29.3104 254.099 29.0104 255.189 28.425C257.011 27.4446 258.05 25.7837 258.05 23.8522C258.05 22.0376 257.223 20.6182 255.657 19.7622" fill="#666"/>
<path d="M67.6422 10.6896C62.5279 10.6896 58.3647 14.8674 58.3647 19.9963C58.3647 25.1253 62.5279 29.3031 67.6422 29.3031C72.7565 29.3031 76.9197 25.1253 76.9197 19.9963C76.9197 14.8674 72.7565 10.6896 67.6422 10.6896ZM67.6422 26.4423C64.101 26.4423 61.2182 23.5522 61.2182 19.9963C61.2182 16.4404 64.101 13.5504 67.6422 13.5504C71.1835 13.5504 74.0662 16.4404 74.0662 19.9963C74.0662 23.5522 71.1835 26.4423 67.6422 26.4423Z" fill="#666"/>
<path d="M215.386 10.6896C210.272 10.6896 206.109 14.8674 206.109 19.9963C206.109 25.1253 210.272 29.3031 215.386 29.3031C220.501 29.3031 224.664 25.1253 224.664 19.9963C224.664 14.8674 220.501 10.6896 215.386 10.6896ZM215.386 26.4423C211.845 26.4423 208.962 23.5522 208.962 19.9963C208.962 16.4404 211.845 13.5504 215.386 13.5504C218.928 13.5504 221.81 16.4404 221.81 19.9963C221.81 23.5522 218.928 26.4423 215.386 26.4423Z" fill="#666"/>
<path d="M181.613 13.5577C183.325 13.5577 184.942 14.2308 186.157 15.4454L188.176 13.4187C186.428 11.6627 184.094 10.6896 181.62 10.6896C179.147 10.6896 176.813 11.6554 175.065 13.4187C173.316 15.1747 172.35 17.516 172.35 20.0036C172.35 22.4913 173.316 24.8253 175.065 26.5886C176.813 28.3446 179.147 29.3177 181.62 29.3177C184.094 29.3177 186.428 28.3519 188.176 26.5886L186.157 24.5619C184.942 25.7765 183.333 26.4496 181.613 26.4496C179.894 26.4496 178.284 25.7765 177.07 24.5619C175.855 23.3473 175.189 21.723 175.189 20.0036C175.189 18.2842 175.855 16.6673 177.07 15.4454C178.284 14.2308 179.894 13.5577 181.613 13.5577Z" fill="#666"/>
<path d="M49.3871 10.931H41.3022V29.0763H44.1557V23.3473H49.3871C52.7967 23.3473 55.5697 20.5597 55.5697 17.1428C55.5697 13.726 52.7967 10.9383 49.3871 10.9383M49.3871 20.4792H44.1557V13.7918H49.3871C51.2236 13.7918 52.7162 15.2917 52.7162 17.1355C52.7162 18.9793 51.2236 20.4792 49.3871 20.4792Z" fill="#666"/>
</g>
</svg>
